<svg xmlns="http://www.w3.org/2000/svg" version="1.1" xmlns:xlink="http://www.w3.org/1999/xlink" xmlns:svgjs="http://svgjs.com/svgjs" width="1440" height="560" preserveAspectRatio="none" viewBox="0 0 1440 560"><g mask="url(&quot;#SvgjsMask1002&quot;)" fill="none"><rect width="1440" height="560" x="0" y="0" fill="rgba(26, 37, 77, 1)"></rect><path d="M121.19 101.87L219.06 158.37L219.06 271.37L121.19 327.87L23.33 271.37L23.33 158.37zM219.06 -67.63L316.92 -11.13L316.92 101.87L219.06 158.37L121.19 101.87L121.19 -11.13zM219.06 271.37L316.92 327.87L316.92 440.87L219.06 497.37L121.19 440.87L121.19 327.87zM414.78 271.37L512.65 327.87L512.65 440.87L414.78 497.37L316.92 440.87L316.92 327.87zM708.38 101.87L806.24 158.37L806.24 271.37L708.38 327.87L610.51 271.37L610.51 158.37zM610.51 271.37L708.38 327.87L708.38 440.87L610.51 497.37L512.65 440.87L512.65 327.87zM806.24 271.37L904.1 327.87L904.1 440.87L806.24 497.37L708.38 440.87L708.38 327.87zM904.1 440.87L1001.97 497.37L1001.97 610.37L904.1 666.87L806.24 610.37L806.24 497.37zM1001.97 -67.63L1099.83 -11.13L1099.83 101.87L1001.97 158.37L904.1 101.87L904.1 -11.13zM1099.83 101.87L1197.69 158.37L1197.69 271.37L1099.83 327.87L1001.97 271.37L1001.97 158.37zM1197.69 -67.63L1295.56 -11.13L1295.56 101.87L1197.69 158.37L1099.83 101.87L1099.83 -11.13zM1295.56 440.87L1393.42 497.37L1393.42 610.37L1295.56 666.87L1197.69 610.37L1197.69 497.37zM1491.28 101.87L1589.15 158.37L1589.15 271.37L1491.28 327.87L1393.42 271.37L1393.42 158.37zM1393.42 271.37L1491.28 327.87L1491.28 440.87L1393.42 497.37L1295.56 440.87L1295.56 327.87z" stroke="#03305d" stroke-width="2"></path><path d="M109.89 101.87 a11.3 11.3 0 1 0 22.6 0 a11.3 11.3 0 1 0 -22.6 0zM207.76 158.37 a11.3 11.3 0 1 0 22.6 0 a11.3 11.3 0 1 0 -22.6 0zM207.76 271.37 a11.3 11.3 0 1 0 22.6 0 a11.3 11.3 0 1 0 -22.6 0zM109.89 327.87 a11.3 11.3 0 1 0 22.6 0 a11.3 11.3 0 1 0 -22.6 0zM12.03 271.37 a11.3 11.3 0 1 0 22.6 0 a11.3 11.3 0 1 0 -22.6 0zM12.03 158.37 a11.3 11.3 0 1 0 22.6 0 a11.3 11.3 0 1 0 -22.6 0zM207.76 -67.63 a11.3 11.3 0 1 0 22.6 0 a11.3 11.3 0 1 0 -22.6 0zM305.62 -11.13 a11.3 11.3 0 1 0 22.6 0 a11.3 11.3 0 1 0 -22.6 0zM305.62 101.87 a11.3 11.3 0 1 0 22.6 0 a11.3 11.3 0 1 0 -22.6 0zM109.89 -11.13 a11.3 11.3 0 1 0 22.6 0 a11.3 11.3 0 1 0 -22.6 0zM305.62 327.87 a11.3 11.3 0 1 0 22.6 0 a11.3 11.3 0 1 0 -22.6 0zM305.62 440.87 a11.3 11.3 0 1 0 22.6 0 a11.3 11.3 0 1 0 -22.6 0zM207.76 497.37 a11.3 11.3 0 1 0 22.6 0 a11.3 11.3 0 1 0 -22.6 0zM109.89 440.87 a11.3 11.3 0 1 0 22.6 0 a11.3 11.3 0 1 0 -22.6 0zM403.48 271.37 a11.3 11.3 0 1 0 22.6 0 a11.3 11.3 0 1 0 -22.6 0zM501.35 327.87 a11.3 11.3 0 1 0 22.6 0 a11.3 11.3 0 1 0 -22.6 0zM501.35 440.87 a11.3 11.3 0 1 0 22.6 0 a11.3 11.3 0 1 0 -22.6 0zM403.48 497.37 a11.3 11.3 0 1 0 22.6 0 a11.3 11.3 0 1 0 -22.6 0zM697.08 101.87 a11.3 11.3 0 1 0 22.6 0 a11.3 11.3 0 1 0 -22.6 0zM794.94 158.37 a11.3 11.3 0 1 0 22.6 0 a11.3 11.3 0 1 0 -22.6 0zM794.94 271.37 a11.3 11.3 0 1 0 22.6 0 a11.3 11.3 0 1 0 -22.6 0zM697.08 327.87 a11.3 11.3 0 1 0 22.6 0 a11.3 11.3 0 1 0 -22.6 0zM599.21 271.37 a11.3 11.3 0 1 0 22.6 0 a11.3 11.3 0 1 0 -22.6 0zM599.21 158.37 a11.3 11.3 0 1 0 22.6 0 a11.3 11.3 0 1 0 -22.6 0zM697.08 440.87 a11.3 11.3 0 1 0 22.6 0 a11.3 11.3 0 1 0 -22.6 0zM599.21 497.37 a11.3 11.3 0 1 0 22.6 0 a11.3 11.3 0 1 0 -22.6 0zM892.8 327.87 a11.3 11.3 0 1 0 22.6 0 a11.3 11.3 0 1 0 -22.6 0zM892.8 440.87 a11.3 11.3 0 1 0 22.6 0 a11.3 11.3 0 1 0 -22.6 0zM794.94 497.37 a11.3 11.3 0 1 0 22.6 0 a11.3 11.3 0 1 0 -22.6 0zM990.67 497.37 a11.3 11.3 0 1 0 22.6 0 a11.3 11.3 0 1 0 -22.6 0zM990.67 610.37 a11.3 11.3 0 1 0 22.6 0 a11.3 11.3 0 1 0 -22.6 0zM892.8 666.87 a11.3 11.3 0 1 0 22.6 0 a11.3 11.3 0 1 0 -22.6 0zM794.94 610.37 a11.3 11.3 0 1 0 22.6 0 a11.3 11.3 0 1 0 -22.6 0zM990.67 -67.63 a11.3 11.3 0 1 0 22.6 0 a11.3 11.3 0 1 0 -22.6 0zM1088.53 -11.13 a11.3 11.3 0 1 0 22.6 0 a11.3 11.3 0 1 0 -22.6 0zM1088.53 101.87 a11.3 11.3 0 1 0 22.6 0 a11.3 11.3 0 1 0 -22.6 0zM990.67 158.37 a11.3 11.3 0 1 0 22.6 0 a11.3 11.3 0 1 0 -22.6 0zM892.8 101.87 a11.3 11.3 0 1 0 22.6 0 a11.3 11.3 0 1 0 -22.6 0zM892.8 -11.13 a11.3 11.3 0 1 0 22.6 0 a11.3 11.3 0 1 0 -22.6 0zM1186.39 158.37 a11.3 11.3 0 1 0 22.6 0 a11.3 11.3 0 1 0 -22.6 0zM1186.39 271.37 a11.3 11.3 0 1 0 22.6 0 a11.3 11.3 0 1 0 -22.6 0zM1088.53 327.87 a11.3 11.3 0 1 0 22.6 0 a11.3 11.3 0 1 0 -22.6 0zM990.67 271.37 a11.3 11.3 0 1 0 22.6 0 a11.3 11.3 0 1 0 -22.6 0zM1186.39 -67.63 a11.3 11.3 0 1 0 22.6 0 a11.3 11.3 0 1 0 -22.6 0zM1284.26 -11.13 a11.3 11.3 0 1 0 22.6 0 a11.3 11.3 0 1 0 -22.6 0zM1284.26 101.87 a11.3 11.3 0 1 0 22.6 0 a11.3 11.3 0 1 0 -22.6 0zM1284.26 440.87 a11.3 11.3 0 1 0 22.6 0 a11.3 11.3 0 1 0 -22.6 0zM1382.12 497.37 a11.3 11.3 0 1 0 22.6 0 a11.3 11.3 0 1 0 -22.6 0zM1382.12 610.37 a11.3 11.3 0 1 0 22.6 0 a11.3 11.3 0 1 0 -22.6 0zM1284.26 666.87 a11.3 11.3 0 1 0 22.6 0 a11.3 11.3 0 1 0 -22.6 0zM1186.39 610.37 a11.3 11.3 0 1 0 22.6 0 a11.3 11.3 0 1 0 -22.6 0zM1186.39 497.37 a11.3 11.3 0 1 0 22.6 0 a11.3 11.3 0 1 0 -22.6 0zM1479.98 101.87 a11.3 11.3 0 1 0 22.6 0 a11.3 11.3 0 1 0 -22.6 0zM1577.85 158.37 a11.3 11.3 0 1 0 22.6 0 a11.3 11.3 0 1 0 -22.6 0zM1577.85 271.37 a11.3 11.3 0 1 0 22.6 0 a11.3 11.3 0 1 0 -22.6 0zM1479.98 327.87 a11.3 11.3 0 1 0 22.6 0 a11.3 11.3 0 1 0 -22.6 0zM1382.12 271.37 a11.3 11.3 0 1 0 22.6 0 a11.3 11.3 0 1 0 -22.6 0zM1382.12 158.37 a11.3 11.3 0 1 0 22.6 0 a11.3 11.3 0 1 0 -22.6 0zM1479.98 440.87 a11.3 11.3 0 1 0 22.6 0 a11.3 11.3 0 1 0 -22.6 0zM1284.26 327.87 a11.3 11.3 0 1 0 22.6 0 a11.3 11.3 0 1 0 -22.6 0z" fill="#03305d"></path><path d="M50.31 -9.8L101.41 19.7L101.41 78.7L50.31 108.2L-0.79 78.7L-0.79 19.7zM101.41 78.7L152.5 108.2L152.5 167.2L101.41 196.7L50.31 167.2L50.31 108.2zM50.31 344.2L101.41 373.7L101.41 432.7L50.31 462.2L-0.79 432.7L-0.79 373.7zM50.31 521.2L101.41 550.7L101.41 609.7L50.31 639.2L-0.79 609.7L-0.79 550.7zM152.5 -9.8L203.6 19.7L203.6 78.7L152.5 108.2L101.41 78.7L101.41 19.7zM152.5 521.2L203.6 550.7L203.6 609.7L152.5 639.2L101.41 609.7L101.41 550.7zM254.7 -9.8L305.79 19.7L305.79 78.7L254.7 108.2L203.6 78.7L203.6 19.7zM254.7 344.2L305.79 373.7L305.79 432.7L254.7 462.2L203.6 432.7L203.6 373.7zM407.99 78.7L459.09 108.2L459.09 167.2L407.99 196.7L356.89 167.2L356.89 108.2zM356.89 167.2L407.99 196.7L407.99 255.7L356.89 285.2L305.79 255.7L305.79 196.7zM407.99 432.7L459.09 462.2L459.09 521.2L407.99 550.7L356.89 521.2L356.89 462.2zM510.18 78.7L561.28 108.2L561.28 167.2L510.18 196.7L459.09 167.2L459.09 108.2zM459.09 344.2L510.18 373.7L510.18 432.7L459.09 462.2L407.99 432.7L407.99 373.7zM510.18 432.7L561.28 462.2L561.28 521.2L510.18 550.7L459.09 521.2L459.09 462.2zM459.09 521.2L510.18 550.7L510.18 609.7L459.09 639.2L407.99 609.7L407.99 550.7zM561.28 -9.8L612.38 19.7L612.38 78.7L561.28 108.2L510.18 78.7L510.18 19.7zM663.47 521.2L714.57 550.7L714.57 609.7L663.47 639.2L612.38 609.7L612.38 550.7zM765.67 344.2L816.76 373.7L816.76 432.7L765.67 462.2L714.57 432.7L714.57 373.7zM765.67 521.2L816.76 550.7L816.76 609.7L765.67 639.2L714.57 609.7L714.57 550.7zM867.86 167.2L918.96 196.7L918.96 255.7L867.86 285.2L816.76 255.7L816.76 196.7zM867.86 521.2L918.96 550.7L918.96 609.7L867.86 639.2L816.76 609.7L816.76 550.7zM970.06 -9.8L1021.15 19.7L1021.15 78.7L970.06 108.2L918.96 78.7L918.96 19.7zM1021.15 78.7L1072.25 108.2L1072.25 167.2L1021.15 196.7L970.06 167.2L970.06 108.2zM970.06 167.2L1021.15 196.7L1021.15 255.7L970.06 285.2L918.96 255.7L918.96 196.7zM970.06 344.2L1021.15 373.7L1021.15 432.7L970.06 462.2L918.96 432.7L918.96 373.7zM1072.25 -9.8L1123.35 19.7L1123.35 78.7L1072.25 108.2L1021.15 78.7L1021.15 19.7zM1123.35 78.7L1174.44 108.2L1174.44 167.2L1123.35 196.7L1072.25 167.2L1072.25 108.2zM1123.35 432.7L1174.44 462.2L1174.44 521.2L1123.35 550.7L1072.25 521.2L1072.25 462.2zM1225.54 78.7L1276.64 108.2L1276.64 167.2L1225.54 196.7L1174.44 167.2L1174.44 108.2zM1225.54 432.7L1276.64 462.2L1276.64 521.2L1225.54 550.7L1174.44 521.2L1174.44 462.2zM1378.83 167.2L1429.93 196.7L1429.93 255.7L1378.83 285.2L1327.73 255.7L1327.73 196.7zM1429.93 255.7L1481.02 285.2L1481.02 344.2L1429.93 373.7L1378.83 344.2L1378.83 285.2zM1481.02 167.2L1532.12 196.7L1532.12 255.7L1481.02 285.2L1429.93 255.7L1429.93 196.7zM1532.12 255.7L1583.22 285.2L1583.22 344.2L1532.12 373.7L1481.02 344.2L1481.02 285.2z" stroke="rgba(36, 101, 170, 1)" stroke-width="2"></path></g><defs><mask id="SvgjsMask1002"><rect width="1440" height="560" fill="#ffffff"></rect></mask></defs></svg>